<svg width="249" height="78" viewBox="0 0 249 78" fill="none" xmlns="http://www.w3.org/2000/svg">
<path d="M232.998 42.3436C234.794 42.3436 236.252 41.8499 237.374 40.8625C238.363 39.9928 238.933 38.8706 239.086 37.496C239.121 37.1788 239.379 36.9241 239.698 36.9241H247.653C247.98 36.9241 248.246 37.1914 248.229 37.5185C248.112 39.7576 247.444 41.826 246.227 43.7237C244.903 45.7659 243.086 47.3592 240.774 48.5037C238.485 49.6257 235.949 50.1868 233.167 50.1868C227.96 50.1868 223.854 48.5373 220.847 45.2385C217.839 41.9172 216.336 37.3393 216.336 31.5046V30.865C216.336 25.2547 217.828 20.7778 220.813 17.434C223.798 14.0903 227.893 12.4185 233.099 12.4185C237.655 12.4185 241.302 13.72 244.039 16.3232C246.671 18.7839 248.069 22.03 248.232 26.0615C248.245 26.3891 247.98 26.6573 247.652 26.6573H239.7C239.38 26.6573 239.121 26.4015 239.094 26.0827C238.953 24.4598 238.38 23.1253 237.374 22.0793C236.252 20.89 234.771 20.2953 232.931 20.2953C230.665 20.2953 228.227 21.1576 227.06 22.8182C225.915 24.4564 225.174 27.1583 225.174 30.8611V31.9806C225.174 35.7283 225.915 38.6504 227.06 40.2886C228.204 41.9268 230.665 42.3436 232.998 42.3436Z" fill="white"/>
<path d="M209.56 49.4214C209.56 49.7468 209.296 50.0106 208.971 50.0106H200.427C200.102 50.0106 199.838 49.7468 199.838 49.4214V14.1859C199.838 13.8605 200.102 13.5967 200.427 13.5967H208.971C209.296 13.5967 209.56 13.8605 209.56 14.1859V49.4214Z" fill="white"/>
<circle cx="204.699" cy="5.49487" r="4.86108" fill="white"/>
<path d="M185.895 4.11035C186.22 4.11035 186.484 4.37416 186.484 4.69957V13.0643H192.122C192.448 13.0643 192.712 13.3281 192.712 13.6536V19.6114C192.712 19.9368 192.448 20.2006 192.122 20.2006H186.484V38.3779C186.484 39.7243 186.742 40.6893 187.258 41.2728C187.775 41.8562 188.762 42.148 190.221 42.148C191.006 42.148 191.726 42.1062 192.38 42.0227C192.746 41.976 193.082 42.2541 193.082 42.6235V48.8483C193.082 49.1073 192.913 49.3368 192.664 49.4072C190.888 49.9087 189.064 50.1594 187.191 50.1594C180.369 50.1594 176.891 46.7147 176.756 39.8253V20.2006H172.027C171.701 20.2006 171.438 19.9368 171.438 19.6114V13.6536C171.438 13.3281 171.701 13.0643 172.027 13.0643H176.756V4.69957C176.756 4.37416 177.02 4.11035 177.345 4.11035H185.895Z" fill="white"/>
<path d="M142.395 16.7166C144.83 13.8511 148.288 12.4184 152.771 12.4184C156.775 12.4184 159.813 13.5896 161.883 15.932C163.931 18.2744 164.955 21.663 164.955 26.0976V49.4215C164.955 49.7469 164.691 50.0107 164.366 50.0107H157.251C156.925 50.0107 156.661 49.7469 156.661 49.4215V26.2C156.661 21.5152 154.716 19.1727 150.825 19.1727C146.798 19.1727 144.079 20.6168 142.668 23.5051V49.4215C142.668 49.7469 142.404 50.0107 142.079 50.0107L134.964 50.0107C134.638 50.0107 134.374 49.7469 134.374 49.4215V13.6899C134.374 13.3645 134.638 13.1007 134.964 13.1007L141.633 13.1007C141.946 13.1007 142.204 13.3446 142.222 13.6566L142.395 16.7166Z" fill="white"/>
<path fill-rule="evenodd" clip-rule="evenodd" d="M116.474 43.6447L118.28 49.4206C118.357 49.6666 118.585 49.834 118.842 49.834H127.301C127.711 49.834 127.996 49.4253 127.854 49.0405L114.393 12.6266C114.307 12.3953 114.087 12.2417 113.84 12.2417H106.138C105.891 12.2417 105.67 12.3959 105.585 12.628L92.2241 49.0419C92.083 49.4264 92.3676 49.834 92.7772 49.834H101.185C101.443 49.834 101.672 49.6657 101.748 49.4188L103.594 43.4443L103.594 43.4443L103.685 43.1507L103.789 42.8113H103.79L105.961 35.8058L105.962 35.8058L109.989 22.7758L114.044 35.8144H114.043L116.474 43.6447Z" fill="white"/>
<path d="M77.685 45.7126C75.2504 48.5781 71.7919 50.0108 67.3095 50.0108C63.3049 50.0108 60.2673 48.8396 58.1967 46.4972C56.1489 44.1548 55.125 40.7662 55.125 36.3316V13.5969C55.125 12.9461 55.6526 12.4185 56.3034 12.4185H62.8294C63.1548 12.4185 63.4186 12.6823 63.4186 13.0077V36.2292C63.4186 40.914 65.364 43.2565 69.2549 43.2565C73.2822 43.2565 76.0013 41.8124 77.412 38.9241V13.0077C77.412 12.6823 77.6758 12.4185 78.0012 12.4185H85.1164C85.4418 12.4185 85.7056 12.6823 85.7056 13.0077V48.7393C85.7056 49.0647 85.4418 49.3285 85.1164 49.3285H78.4466C78.1341 49.3285 77.876 49.0846 77.8583 48.7726L77.685 45.7126Z" fill="white"/>
<path fill-rule="evenodd" clip-rule="evenodd" d="M45.4658 37.9C47.6733 34.0519 48.8439 29.5487 48.6157 24.7887C47.9791 11.5107 36.6991 1.26267 23.421 1.89921C10.1429 2.53575 -0.105065 13.8158 0.531476 27.0939C1.16802 40.372 12.448 50.6199 25.7261 49.9834C26.6066 49.9412 27.4737 49.8522 28.3252 49.7189C27.0291 48.0735 26.2148 46.0229 26.1068 43.7713C26.0612 42.8189 26.1448 41.8903 26.3421 41.0023C25.9982 41.0424 25.6506 41.071 25.2997 41.0878C16.9345 41.4888 9.82807 35.0326 9.42705 26.6674C9.02603 18.3022 15.4823 11.1958 23.8475 10.7948C32.2127 10.3938 39.3191 16.85 39.7201 25.2152C39.8536 27.9996 39.2273 30.6445 38.0238 32.9491C41.1653 33.402 43.8791 35.2641 45.4658 37.9Z" fill="white"/>
<circle cx="36.5447" cy="43.2474" r="4.80216" transform="rotate(-4.34406 36.5447 43.2474)" fill="#33BEF9"/>
<path d="M170.302 73.7393V71.8695L170.124 71.4599V68.1121C170.124 67.5185 169.94 67.0556 169.572 66.7231C169.216 66.3907 168.664 66.2245 167.916 66.2245C167.405 66.2245 166.901 66.3076 166.402 66.4738C165.915 66.6282 165.5 66.8419 165.155 67.1149L164.158 65.1739C164.681 64.8059 165.31 64.521 166.046 64.3192C166.782 64.1173 167.53 64.0164 168.29 64.0164C169.75 64.0164 170.884 64.3607 171.691 65.0493C172.498 65.7378 172.902 66.8122 172.902 68.2724V73.7393H170.302ZM167.381 73.8817C166.633 73.8817 165.992 73.7571 165.458 73.5078C164.924 73.2466 164.514 72.8964 164.229 72.4571C163.945 72.0179 163.802 71.5252 163.802 70.9791C163.802 70.4093 163.939 69.9107 164.212 69.4833C164.497 69.0559 164.942 68.7235 165.547 68.4861C166.153 68.2368 166.942 68.1121 167.916 68.1121H170.462V69.7326H168.218C167.565 69.7326 167.114 69.8394 166.865 70.0531C166.628 70.2668 166.509 70.5339 166.509 70.8545C166.509 71.2106 166.645 71.4955 166.918 71.7092C167.203 71.911 167.589 72.0119 168.076 72.0119C168.539 72.0119 168.954 71.9051 169.322 71.6914C169.69 71.4658 169.958 71.1394 170.124 70.712L170.551 71.9941C170.349 72.6115 169.981 73.0804 169.447 73.4009C168.913 73.7215 168.224 73.8817 167.381 73.8817ZM180.115 73.8817C179.083 73.8817 178.162 73.674 177.355 73.2585C176.548 72.8311 175.913 72.2434 175.45 71.4955C174.999 70.7476 174.773 69.8988 174.773 68.9491C174.773 67.9875 174.999 67.1387 175.45 66.4026C175.913 65.6547 176.548 65.073 177.355 64.6575C178.162 64.2301 179.083 64.0164 180.115 64.0164C181.124 64.0164 182.003 64.2301 182.751 64.6575C183.499 65.073 184.051 65.6725 184.407 66.456L182.252 67.6135C182.003 67.1624 181.688 66.83 181.308 66.6163C180.94 66.4026 180.537 66.2958 180.098 66.2958C179.623 66.2958 179.195 66.4026 178.815 66.6163C178.436 66.83 178.133 67.1327 177.907 67.5245C177.694 67.9162 177.587 68.3911 177.587 68.9491C177.587 69.507 177.694 69.9819 177.907 70.3737C178.133 70.7654 178.436 71.0682 178.815 71.2818C179.195 71.4955 179.623 71.6024 180.098 71.6024C180.537 71.6024 180.94 71.5015 181.308 71.2996C181.688 71.086 182.003 70.7476 182.252 70.2846L184.407 71.4599C184.051 72.2316 183.499 72.8311 182.751 73.2585C182.003 73.674 181.124 73.8817 180.115 73.8817ZM191.883 73.7393V71.8695L191.705 71.4599V68.1121C191.705 67.5185 191.521 67.0556 191.153 66.7231C190.797 66.3907 190.245 66.2245 189.497 66.2245C188.986 66.2245 188.482 66.3076 187.983 66.4738C187.496 66.6282 187.081 66.8419 186.736 67.1149L185.739 65.1739C186.262 64.8059 186.891 64.521 187.627 64.3192C188.363 64.1173 189.111 64.0164 189.871 64.0164C191.331 64.0164 192.465 64.3607 193.272 65.0493C194.079 65.7378 194.483 66.8122 194.483 68.2724V73.7393H191.883ZM188.962 73.8817C188.215 73.8817 187.573 73.7571 187.039 73.5078C186.505 73.2466 186.095 72.8964 185.811 72.4571C185.526 72.0179 185.383 71.5252 185.383 70.9791C185.383 70.4093 185.52 69.9107 185.793 69.4833C186.078 69.0559 186.523 68.7235 187.128 68.4861C187.734 68.2368 188.523 68.1121 189.497 68.1121H192.043V69.7326H189.799C189.146 69.7326 188.695 69.8394 188.446 70.0531C188.209 70.2668 188.09 70.5339 188.09 70.8545C188.09 71.2106 188.226 71.4955 188.499 71.7092C188.784 71.911 189.17 72.0119 189.657 72.0119C190.12 72.0119 190.535 71.9051 190.903 71.6914C191.271 71.4658 191.539 71.1394 191.705 70.712L192.132 71.9941C191.93 72.6115 191.562 73.0804 191.028 73.4009C190.494 73.7215 189.805 73.8817 188.962 73.8817ZM201.18 73.8817C200.278 73.8817 199.465 73.6799 198.74 73.2763C198.016 72.8608 197.44 72.285 197.013 71.5489C196.598 70.8129 196.39 69.9463 196.39 68.9491C196.39 67.94 196.598 67.0674 197.013 66.3314C197.44 65.5953 198.016 65.0255 198.74 64.6219C199.465 64.2182 200.278 64.0164 201.18 64.0164C201.987 64.0164 202.694 64.1945 203.299 64.5506C203.904 64.9068 204.373 65.447 204.706 66.1711C205.038 66.8953 205.204 67.8213 205.204 68.9491C205.204 70.065 205.044 70.991 204.724 71.727C204.403 72.4512 203.94 72.9913 203.335 73.3475C202.741 73.7036 202.023 73.8817 201.18 73.8817ZM201.661 71.6024C202.112 71.6024 202.521 71.4955 202.889 71.2818C203.257 71.0682 203.548 70.7654 203.762 70.3737C203.988 69.97 204.1 69.4952 204.1 68.9491C204.1 68.3911 203.988 67.9162 203.762 67.5245C203.548 67.1327 203.257 66.83 202.889 66.6163C202.521 66.4026 202.112 66.2958 201.661 66.2958C201.198 66.2958 200.782 66.4026 200.414 66.6163C200.046 66.83 199.749 67.1327 199.524 67.5245C199.31 67.9162 199.203 68.3911 199.203 68.9491C199.203 69.4952 199.31 69.97 199.524 70.3737C199.749 70.7654 200.046 71.0682 200.414 71.2818C200.782 71.4955 201.198 71.6024 201.661 71.6024ZM204.172 73.7393V71.7804L204.225 68.9313L204.047 66.0999V60.5262H206.825V73.7393H204.172ZM214.151 73.8817C213.058 73.8817 212.097 73.668 211.266 73.2407C210.447 72.8133 209.811 72.2316 209.36 71.4955C208.909 70.7476 208.684 69.8988 208.684 68.9491C208.684 67.9875 208.903 67.1387 209.343 66.4026C209.794 65.6547 210.405 65.073 211.177 64.6575C211.948 64.2301 212.821 64.0164 213.794 64.0164C214.732 64.0164 215.575 64.2182 216.323 64.6219C217.083 65.0136 217.682 65.5835 218.122 66.3314C218.561 67.0674 218.78 67.9519 218.78 68.9847C218.78 69.0915 218.775 69.2162 218.763 69.3586C218.751 69.4892 218.739 69.6139 218.727 69.7326H210.945V68.1121H217.267L216.198 68.5929C216.198 68.0943 216.097 67.661 215.896 67.293C215.694 66.925 215.415 66.64 215.059 66.4382C214.703 66.2245 214.287 66.1177 213.812 66.1177C213.337 66.1177 212.916 66.2245 212.548 66.4382C212.192 66.64 211.913 66.9309 211.711 67.3108C211.509 67.6788 211.408 68.1181 211.408 68.6285V69.0559C211.408 69.5783 211.521 70.0413 211.747 70.4449C211.984 70.8367 212.31 71.1394 212.726 71.3531C213.153 71.5549 213.652 71.6558 214.222 71.6558C214.732 71.6558 215.177 71.5786 215.557 71.4243C215.949 71.27 216.305 71.0385 216.626 70.7298L218.104 72.3325C217.665 72.8311 217.113 73.2169 216.448 73.49C215.783 73.7511 215.017 73.8817 214.151 73.8817ZM232.899 64.0164C233.659 64.0164 234.33 64.1708 234.911 64.4794C235.505 64.7762 235.968 65.2392 236.3 65.8684C236.645 66.4857 236.817 67.2811 236.817 68.2546V73.7393H234.039V68.682C234.039 67.9103 233.879 67.3405 233.558 66.9725C233.238 66.6044 232.786 66.4204 232.205 66.4204C231.801 66.4204 231.439 66.5154 231.118 66.7053C230.798 66.8834 230.549 67.1565 230.371 67.5245C230.192 67.8925 230.103 68.3614 230.103 68.9313V73.7393H227.326V68.682C227.326 67.9103 227.165 67.3405 226.845 66.9725C226.536 66.6044 226.091 66.4204 225.509 66.4204C225.106 66.4204 224.743 66.5154 224.423 66.7053C224.102 66.8834 223.853 67.1565 223.675 67.5245C223.497 67.8925 223.408 68.3614 223.408 68.9313V73.7393H220.63V64.1589H223.283V66.7766L222.785 66.0109C223.117 65.3579 223.586 64.8652 224.191 64.5328C224.809 64.1886 225.509 64.0164 226.293 64.0164C227.171 64.0164 227.937 64.242 228.59 64.6931C229.255 65.1324 229.694 65.809 229.908 66.7231L228.928 66.456C229.249 65.7081 229.759 65.1145 230.46 64.6753C231.172 64.2361 231.985 64.0164 232.899 64.0164ZM240.344 77.3363C239.845 77.3363 239.353 77.2592 238.866 77.1049C238.379 76.9505 237.981 76.7368 237.673 76.4638L238.688 74.4872C238.901 74.6771 239.145 74.8255 239.418 74.9324C239.703 75.0392 239.982 75.0926 240.255 75.0926C240.647 75.0926 240.955 74.9976 241.181 74.8077C241.418 74.6296 241.632 74.3269 241.822 73.8995L242.32 72.7242L242.534 72.4215L245.971 64.1589H248.642L244.315 74.3269C244.006 75.0986 243.65 75.704 243.246 76.1433C242.855 76.5825 242.415 76.8912 241.929 77.0692C241.454 77.2473 240.926 77.3363 240.344 77.3363ZM241.982 74.1132L237.708 64.1589H240.575L243.887 72.1722L241.982 74.1132Z" fill="#33BEF9"/>
<g clip-path="url(#clip0_188_2879)">
<path d="M159.028 66.6227L151.557 63.3853C151.495 63.3582 151.427 63.3442 151.359 63.3442C151.291 63.3442 151.223 63.3582 151.161 63.3853L143.69 66.6227C143.291 66.7956 143.291 67.3636 143.69 67.5366L146.378 68.7015V71.8111C146.378 73.4868 148.566 74.7995 151.359 74.7995C154.152 74.7995 156.34 73.4868 156.34 71.8111V68.7015L156.838 68.4857V73.8034C156.838 74.0784 157.061 74.3014 157.336 74.3014C157.611 74.3014 157.834 74.0784 157.834 73.8034V68.0541L159.028 67.5367C159.427 67.3637 159.427 66.7957 159.028 66.6227ZM151.359 64.3851L157.577 67.0797L157.084 67.2934L151.421 66.5854C151.148 66.5515 150.899 66.7449 150.865 67.0179C150.831 67.2908 151.024 67.5397 151.297 67.5738L155.286 68.0725L151.359 69.7742L145.141 67.0796L151.359 64.3851ZM155.343 71.8112C155.343 72.2804 154.958 72.7636 154.287 73.1367C152.687 74.0252 150.035 74.0278 148.431 73.1367C147.76 72.7636 147.375 72.2804 147.375 71.8112V69.1332L151.161 70.774C151.223 70.8011 151.291 70.8151 151.359 70.8151C151.427 70.8151 151.495 70.8011 151.557 70.774L155.343 69.1332V71.8112Z" fill="#33BEF9"/>
</g>
<defs>
<clipPath id="clip0_188_2879">
<rect width="15.9366" height="15.9366" fill="white" transform="translate(143.391 61.1035)"/>
</clipPath>
</defs>
</svg>
